# AST/ASF file generated using VICON BodyLanguage
# -----------------------------------------------
:version 1.10
:name VICON
:units
  mass 1.0
  length 0.45
  angle deg
:documentation
   .ast/.asf automatically generated from VICON data using
   VICON BodyBuilder and BodyLanguage model FoxedUp or BRILLIANT.MOD
:root
   order TX TY TZ RX RY RZ
   axis XYZ
   position 0 0 0  
   orientation 0 0 0 
:bonedata
  begin
     id 1 
     name lhipjoint
     direction 0.693937 -0.600361 0.397515 
     length 2.37164 
     axis 0 0 0  XYZ
  end
  begin
     id 2 
     name lfemur
     direction 0.34202 -0.939693 0  
     length 6.18497  
     axis 0 0 20  XYZ
    dof rx ry rz
    limits (-160.0 20.0)
           (-70.0 70.0)
           (-60.0 70.0)
  end
  begin
     id 3 
     name ltibia
     direction 0.34202 -0.939693 0   
     length 6.91601   
     axis 0 0 20   XYZ
    dof rx
    limits (-10.0 170.0)
  end
  begin
     id 4 
     name lfoot
     direction 0.0978718 -0.2689 0.958182   
     length 1.81453   
     axis -90 7.62852e-016 20   XYZ
    dof rx rz
    limits (-45.0 90.0)
           (-70.0 20.0)
  end
  begin
     id 5 
     name ltoes
     direction 1.53569e-011 -4.21951e-011 1   
     length 0.912052   
     axis -90 7.62852e-016 20   XYZ
    dof rx
    limits (-90.0 20.0)
  end
  begin
     id 6 
     name rhipjoint
     direction -0.643996 -0.637876 0.422354   
     length 2.23216  
     axis 0 0 0  XYZ 
  end
  begin
     id 7 
     name rfemur
     direction -0.34202 -0.939693 0   
     length 6.15404   
     axis 0 0 -20   XYZ
    dof rx ry rz
    limits (-160.0 20.0)
           (-70.0 70.0)
           (-70.0 60.0)
  end
  begin
     id 8 
     name rtibia
     direction -0.34202 -0.939693 0   
     length 6.86744   
     axis 0 0 -20   XYZ
    dof rx
    limits (-10.0 170.0)
 end
 begin
     id 9 
     name rfoot
     direction -0.118701 -0.326127 0.937844   
     length 1.9243  
     axis -90 -7.62852e-016 -20   XYZ
    dof rx rz
    limits (-45.0 90.0)
           (-20.0 70.0)
  end
  begin
     id 10 
     name rtoes
     direction -1.5356e-011 -4.2181e-011 1   
     length 0.958865   
     axis -90 -7.62852e-016 -20   XYZ
    dof rx
    limits (-90.0 20.0)
  end
  begin
     id 11 
     name lowerback
     direction 0.0310826 0.968686 -0.246334   
     length 2.00021   
     axis 0 0 0   XYZ
    dof rx ry rz
    limits (-20.0 45.0)
           (-30.0 30.0)
           (-30.0 30.0)
  end
  begin
     id 12 
     name upperback
     direction -0.0152834 0.999474 -0.0286152   
     length 2.03728   
     axis 0 0 0   XYZ
    dof rx ry rz
    limits (-20.0 45.0)
           (-30.0 30.0)
           (-30.0 30.0)
  end
  begin
     id 13 
     name thorax
     direction -0.0323701 0.996236 0.0804149   
     length 2.16   
     axis 0 0 0   XYZ
    dof rx ry rz
    limits (-20.0 45.0)
           (-30.0 30.0)
           (-30.0 30.0)
  end
  begin
     id 14 
     name lowerneck
     direction 0.0307935 0.982251 0.185027   
     length 1.43558   
     axis 0 0 0   XYZ
    dof rx ry rz
    limits (-20.0 45.0)
           (-30.0 30.0)
           (-30.0 30.0)
  end
  begin
     id 15 
     name upperneck
     direction -0.0927153 0.994775 0.0427454   
     length 1.44603   
     axis 0 0 0   XYZ
    dof rx ry rz
    limits (-20.0 45.0)
           (-30.0 30.0)
           (-30.0 30.0)
  end
  begin
     id 16
     name head
     direction -0.0341265 0.999406 -0.00472033  
     length 1.45931  
     axis 0 0 0   XYZ
    dof rx ry rz
    limits (-20.0 45.0)
           (-30.0 30.0)
           (-30.0 30.0)
  end
  begin
     id 17 
     name lclavicle
     direction 0.820755 0.555306 -0.134151  
     length 2.66075  
     axis 0 0 0   XYZ
    dof ry rz
    limits (-20.0 10.0)
           (0.0 20.0)
  end
  begin
     id 18 
     name lhumerus
     direction 1 -4.48971e-011 5.24853e-027   
     length 5.0546   
     axis -180 -30 -90   XYZ
    dof rx ry rz
    limits (-60.0 90.0)
           (-90.0 90.0)
           (-90.0 90.0)
  end
  begin
     id 19
     name lradius
     direction 1 -4.48971e-011 2.76575e-028   
     length 3.39013   
     axis -180 -30 -90   XYZ
    dof rx
    limits (-10.0 170.0)
  end
  begin
     id 20
     name lwrist
     direction 1 -4.48939e-011 -2.27826e-027   
     length 1.69507   
     axis 2.17013e-015 90 90   XYZ
    dof ry
    limits (-180.0 0.0)
 end
  begin
     id 21 
     name lhand
     direction 1 -4.49009e-011 -4.55652e-027   
     length 0.572425   
     axis 2.90745e-015 90 90   XYZ
    dof rx rz
    limits (-90.0 90.0)
           (-45.0 45.0)
  end
  begin
     id 22 
     name lfingers
     direction 1 -4.48955e-011 -9.11303e-027   
     length 0.461504   
     axis 5.81489e-015 90 90   XYZ
    dof rx
    limits (0.0 90.0)
  end
  begin
     id 23
     name lthumb
     direction 0.707107 -6.34929e-011 0.707107   
     length 0.66263   
     axis -90 45 2.85299e-015   XYZ
    dof rx rz
    limits (-45.0 45.0)
           (-45.0 45.0)
  end
  begin
     id 24 
     name rclavicle
     direction -0.754477 0.632921 -0.173712   
     length 2.73081  
     axis 0 0 0   XYZ 
    dof ry rz
    limits (-10.0 20.0)
           (-20.0 0.0)
  end
  begin
     id 25 
     name rhumerus
     direction -1 -4.48969e-011 5.1496e-027  
     length 5.0701   
     axis -180 30 90   XYZ
    dof rx ry rz
    limits (-90.0 60.0)
           (-90.0 90.0)
           (-90.0 90.0)
  end
  begin
     id 26 
     name rradius
     direction -1 -4.48967e-011 -7.15624e-028   
     length 3.14957   
     axis -180 30 90   XYZ
    dof rx
    limits (-10.0 170.0)
  end
  begin
     id 27 
     name rwrist
     direction -1 -4.48938e-011 -2.27826e-027   
     length 1.57479   
     axis 2.17013e-015 -90 -90   XYZ
    dof ry
    limits (-180.0 0.0)
  end
  begin
     id 28
     name rhand
     direction -1 -4.49008e-011 -4.55652e-027   
     length 0.718191   
     axis 2.90745e-015 -90 -90   XYZ
    dof rx rz
    limits (-90.0 90.0)
           (-45.0 45.0)
  end
  begin
     id 29
     name rfingers
     direction -1 -4.48953e-011 -9.11303e-027   
     length 0.579024   
     axis 5.81489e-015 -90 -90   XYZ
    dof rx
    limits (0.0 90.0)
  end
  begin
     id 30
     name rthumb
     direction -0.707107 -6.34937e-011 0.707107   
     length 0.831366   
     axis -90 -45 -2.85299e-015   XYZ
    dof rx rz
    limits (-45.0 45.0)
           (-45.0 45.0)
  end
:hierarchy
  begin
    root lhipjoint rhipjoint lowerback
    lhipjoint lfemur
    lfemur ltibia
    ltibia lfoot
    lfoot ltoes
    rhipjoint rfemur
    rfemur rtibia
    rtibia rfoot
    rfoot rtoes
    lowerback upperback
    upperback thorax
    thorax lowerneck lclavicle rclavicle
    lowerneck upperneck
    upperneck head
    lclavicle lhumerus
    lhumerus lradius
    lradius lwrist
    lwrist lhand lthumb
    lhand lfingers
    rclavicle rhumerus
    rhumerus rradius
    rradius rwrist
    rwrist rhand rthumb
    rhand rfingers
  end

#!OML:ASF H:\Male1\Project 1\Capture day 1\Session 1\Male1.ASF
:FULLY-SPECIFIED
:DEGREES
81
root 27.3539 15.3727 -1.02774 3.41738 -36.8669 2.58733
lowerback 18.8356 1.02552 1.81209
upperback 12.2385 1.22412 2.46377
thorax 2.63378 0.470771 1.38602
lowerneck -9.40455 -8.58006 -3.98063
upperneck 2.05357 -11.8856 14.5675
head 3.30551 -5.48115 4.30409
rclavicle 7.15625e-014 7.15625e-015
rhumerus 1.41035 28.8483 -69.7313
rradius 60.5222
rwrist -73.8929
rhand -33.9549 -26.4055
rfingers 7.12502
rthumb -7.13605 -56.2652
lclavicle 7.15625e-014 7.15625e-015
lhumerus -6.76382 -37.4067 83.7999
lradius 64.0134
lwrist 11.2122
lhand -17.345 25.9678
lfingers 7.12502
lthumb 8.90241 55.76
rfemur -20.4435 -1.42367 23.3206
rtibia 36.3721
rfoot -27.4281 -27.9726
rtoes -13.2518
lfemur -23.4818 -13.0072 -22.7556
ltibia 36.4852
lfoot -21.4841 10.7472
ltoes -16.7262
82
root 27.2523 15.374 -0.99581 3.62274 -36.7986 2.25338
lowerback 18.6355 1.02391 1.97694
upperback 12.175 1.24768 2.27599
thorax 2.67293 0.50235 1.09205
lowerneck -9.29605 -8.45062 -3.74528
upperneck 2.32569 -11.7638 14.4739
head 3.33743 -5.41323 4.24961
rclavicle -2.38542e-014 1.03368e-014
rhumerus -0.48108 30.6521 -71.0576
rradius 63.1859
rwrist -74.7163
rhand -34.0914 -26.3058
rfingers 7.12502
rthumb -7.26784 -56.1609
lclavicle -2.38542e-014 1.03368e-014
lhumerus -10.1696 -36.9168 83.4739
lradius 67.9811
lwrist 10.8519
lhand -16.9404 25.9621
lfingers 7.12502
lthumb 9.29289 55.7373
rfemur -20.0895 -1.65284 23.8959
rtibia 36.3513
rfoot -27.4124 -27.837
rtoes -12.8963
lfemur -23.9872 -13.1954 -22.9364
ltibia 36.1117
lfoot -20.8495 10.539
ltoes -15.4004
83
root 27.1553 15.3758 -0.961536 3.82319 -36.8048 1.86921
lowerback 18.4293 1.037 2.08775
upperback 12.1341 1.27939 2.13619
thorax 2.7384 0.532179 0.878945
lowerneck -9.18607 -8.26475 -3.45108
upperneck 2.59715 -11.559 14.2189
head 3.34731 -5.30894 4.14453
rclavicle -4.21423e-014 3.73715e-014
rhumerus -2.21765 32.5962 -72.4098
rradius 65.5736
rwrist -75.4159
rhand -33.999 -26.383
rfingers 7.12502
rthumb -7.17864 -56.2412
lclavicle -4.21423e-014 3.73715e-014
lhumerus -13.7066 -36.2278 83.2163
lradius 71.9061
lwrist 10.8612
lhand -16.7467 26.0336
lfingers 7.12502
lthumb 9.47975 55.8003
rfemur -19.7315 -1.93472 24.4979
rtibia 36.3555
rfoot -27.2846 -27.6467
rtoes -12.6769
lfemur -24.3698 -13.2386 -23.0556
ltibia 35.7682
lfoot -19.9306 10.6164
ltoes -12.8974
84
root 27.0642 15.3769 -0.925954 3.98855 -36.8843 1.45876
lowerback 18.246 1.06339 2.13649
upperback 12.1168 1.31737 2.03289
thorax 2.81621 0.559287 0.738812
lowerneck -9.06681 -8.02774 -3.12816
upperneck 2.8986 -11.2811 13.8458
head 3.3501 -5.17102 4.00503
rclavicle 4.37326e-014 -4.13472e-014
rhumerus -3.78644 34.7365 -73.751
rradius 67.6761
rwrist -75.9757
rhand -33.7867 -26.5558
rfingers 7.12502
rthumb -6.97368 -56.4209
lclavicle 4.37326e-014 -4.13472e-014
lhumerus -17.3595 -35.34 83.018
lradius 75.7786
lwrist 11.3647
lhand -16.7376 26.1319
lfingers 7.12502
lthumb 9.48853 55.8983
rfemur -19.379 -2.2685 25.1028
rtibia 36.4326
rfoot -27.0543 -27.4225
rtoes -12.7183
lfemur -24.5946 -13.1638 -23.1375
ltibia 35.5042
lfoot -18.9243 11.2331
ltoes -9.76374
85
root 26.9798 15.3759 -0.890124 4.08193 -37.0264 1.05649
lowerback 18.1184 1.105 2.10843
upperback 12.1253 1.36333 1.95159
thorax 2.89159 0.584123 0.66372
lowerneck -8.9562 -7.74096 -2.77161
upperneck 3.23431 -10.9341 13.3705
head 3.35274 -5.00008 3.83357
rclavicle 4.13472e-014 -7.95139e-015
rhumerus -5.1887 37.0844 -75.0679
rradius 69.4925
rwrist -76.3764
rhand -33.607 -26.7219
rfingers 7.12502
rthumb -6.80015 -56.5926
lclavicle 4.13472e-014 -7.95139e-015
lhumerus -21.1064 -34.2753 82.866
lradius 79.6022
lwrist 12.3969
lhand -16.8742 26.2964
lfingers 7.12502
lthumb 9.3567 56.0687
rfemur -19.0383 -2.64684 25.6747
rtibia 36.63
rfoot -26.7447 -27.182
rtoes -13.0904
lfemur -24.6256 -13.0073 -23.2115
ltibia 35.3636
lfoot -18.1494 12.2244
ltoes -5.80743
86
root 26.9032 15.3713 -0.854404 4.11269 -37.211 0.669773
lowerback 18.0504 1.15722 2.01572
upperback 12.1542 1.41382 1.8877
thorax 2.95682 0.605897 0.64221
lowerneck -8.85353 -7.41606 -2.41336
upperneck 3.58916 -10.5325 12.8486
head 3.3586 -4.80277 3.65053
rclavicle 4.05521e-014 1.59028e-015
rhumerus -6.43744 39.6301 -76.3344
rradius 71.062
rwrist -76.6682
rhand -33.5793 -26.8352
rfingers 7.12502
rthumb -6.77348 -56.7069
lclavicle 4.05521e-014 1.59028e-015
lhumerus -24.9261 -33.0584 82.7586
lradius 83.3752
lwrist 13.8274
lhand -17.1275 26.6129
lfingers 7.12502
lthumb 9.11234 56.3961
rfemur -18.7439 -3.07161 26.1979
rtibia 36.9827
rfoot -26.3634 -26.9353
rtoes -13.8524
lfemur -24.4766 -12.8392 -23.2685
ltibia 35.3661
lfoot -17.7611 13.4999
ltoes -1.88218
87
root 26.8337 15.3629 -0.818889 4.10903 -37.4264 0.285796
lowerback 18.0279 1.22141 1.88067
upperback 12.1989 1.47378 1.8327
thorax 3.0146 0.628867 0.652053
lowerneck -8.79616 -7.05732 -2.04863
upperneck 3.97219 -10.0866 12.308
head 3.37982 -4.58153 3.46109
rclavicle -1.41137e-013 9.62118e-014
rhumerus -7.57321 42.3266 -77.5456
rradius 72.4523
rwrist -76.9063
rhand -33.698 -26.9362
rfingers 7.12502
rthumb -6.888 -56.8041
lclavicle -1.41137e-013 9.62118e-014
lhumerus -28.7869 -31.7393 82.6754
lradius 87.0803
lwrist 15.3755
lhand -17.4702 27.123
lfingers 7.12502
lthumb 8.78161 56.9203
rfemur -18.5186 -3.53265 26.6808
rtibia 37.5018
rfoot -25.9242 -26.674
rtoes -14.9347
lfemur -24.1811 -12.7024 -23.2722
ltibia 35.5028
lfoot -17.8609 14.8004
ltoes 1.58527
88
root 26.7704 15.3508 -0.783649 4.11825 -37.6652 -0.112767
lowerback 18.0204 1.32817 1.75433
upperback 12.2538 1.58999 1.76574
thorax 3.07657 0.680816 0.636032
lowerneck -8.78249 -6.71397 -1.62143
upperneck 4.33712 -9.66927 11.8058
head 3.40866 -4.37181 3.26912
rclavicle -2.50469e-014 3.18055e-015
rhumerus -8.677 44.9869 -78.746
rradius 73.7243
rwrist -77.0872
rhand -33.8718 -27.0629
rfingers 7.12502
rthumb -7.0558 -56.9253
lclavicle -2.50469e-014 3.18055e-015
lhumerus -32.6056 -30.4912 82.5812
lradius 90.6748
lwrist 16.7376
lhand -17.8541 27.8006
lfingers 7.12502
lthumb 8.41118 57.6131
rfemur -18.3914 -4.00878 27.1384
rtibia 38.1766
rfoot -25.468 -26.369
rtoes -16.1195
lfemur -23.8029 -12.5931 -23.1846
ltibia 35.7341
lfoot -18.3776 15.8591
ltoes 4.24548
89
root 26.7128 15.3362 -0.749264 4.17699 -37.9054 -0.532475
lowerback 18.013 1.47119 1.64495
upperback 12.3109 1.7558 1.68893
thorax 3.14183 0.759072 0.592961
lowerneck -8.79445 -6.40415 -1.12247
upperneck 4.63341 -9.30259 11.3549
head 3.42826 -4.18647 3.07699
rclavicle 2.90226e-014 -3.49861e-014
rhumerus -9.77075 47.5306 -79.933
rradius 74.9325
rwrist -77.2561
rhand -34.0151 -27.2283
rfingers 7.12502
rthumb -7.19413 -57.086
lclavicle 2.90226e-014 -3.49861e-014
lhumerus -36.3419 -29.3588 82.4997
lradius 94.1095
lwrist 17.7047
lhand -18.2721 28.583
lfingers 7.12502
lthumb 8.00768 58.4113
rfemur -18.3833 -4.48541 27.5792
rtibia 38.9821
rfoot -25.0323 -26.0117
rtoes -17.2674
lfemur -23.4129 -12.4818 -22.9906
ltibia 36.0101
lfoot -19.1049 16.5254
ltoes 5.89113
90
root 26.66 15.3208 -0.716457 4.29494 -38.1087 -0.941813
lowerback 17.9948 1.64846 1.55235
upperback 12.3618 1.96951 1.59075
thorax 3.20729 0.863689 0.511237
lowerneck -8.83248 -6.15741 -0.606315
upperneck 4.85661 -9.02816 11.0409
head 3.4459 -4.04346 2.91655
rclavicle -3.29983e-014 3.18055e-015
rhumerus -10.9118 49.7752 -81.1776
rradius 76.0792
rwrist -77.3669
rhand -34.075 -27.3992
rfingers 7.12502
rthumb -7.25196 -57.255
lclavicle -3.29983e-014 3.18055e-015
lhumerus -39.9385 -28.4056 82.43
lradius 97.34
lwrist 18.2922
lhand -18.6185 29.2816
lfingers 7.12502
lthumb 7.67335 59.1224
rfemur -18.5174 -4.96514 27.9832
rtibia 39.8937
rfoot -24.6107 -25.6249
rtoes -18.3963
lfemur -23.0881 -12.3264 -22.7222
ltibia 36.2814
lfoot -19.8123 16.7934
ltoes 6.58392
91
root 26.6121 15.3068 -0.686004 4.48087 -38.2303 -1.30734
lowerback 17.9552 1.83553 1.46876
upperback 12.3993 2.19903 1.47071
thorax 3.27066 0.978433 0.399741
lowerneck -8.88397 -5.98286 -0.0879562
upperneck 4.97037 -8.85198 10.8494
head 3.4469 -3.94847 2.78659
rclavicle -2.38542e-014 2.3059e-014
rhumerus -12.114 51.6783 -82.4854
rradius 77.1882
rwrist -77.3843
rhand -34.1196 -27.4809
rfingers 7.12502
rthumb -7.29499 -57.3351
lclavicle -2.38542e-014 2.3059e-014
lhumerus -43.3595 -27.6159 82.3921
lradius 100.347
lwrist 18.691
lhand -18.8438 29.8176
lfingers 7.12502
lthumb 7.45595 59.6662
rfemur -18.8314 -5.45393 28.3277
rtibia 40.8979
rfoot -24.1844 -25.2315
rtoes -19.4996
lfemur -22.8811 -12.0973 -22.4207
ltibia 36.5123
lfoot -20.4506 16.6814
ltoes 7.05755
